<svg xmlns="http://www.w3.org/2000/svg" width="13" height="12" fill="none"><path fill="#6C757D" fill-opacity=".6" d="M6.313 11.125c-.313 0-.688-.125-.938-.375C1.312 7.187 1.25 7.125 1.25 7.062L1.187 7A4.122 4.122 0 0 1 0 4.125V4c.063-2.25 1.875-4 4.125-4 .688 0 1.625.375 2.188 1.125C6.875.375 7.875 0 8.563 0c2.25 0 4 1.75 4.124 4v.125c0 1.125-.437 2.125-1.187 2.938l-.063.062c-.062.063-.562.5-4.124 3.688-.313.187-.625.312-1 .312Zm-4.125-4.25C2.438 7.125 3.688 8 6 10c.188.188.438.188.625 0C9 7.875 10.375 6.687 10.688 6.437l.062-.062a3.172 3.172 0 0 0 .938-2.25V4C11.624 2.25 10.25.937 8.5.937c-.438 0-1.313.313-1.625 1a.687.687 0 0 1-.625.375c-.25 0-.5-.124-.625-.374-.313-.625-1.125-1-1.625-1C2.312.938.875 2.313.812 4v.188c0 .812.375 1.625.938 2.187l.438.5Z"/></svg>